<?xml version="1.0" encoding="UTF-8"?>
<!DOCTYPE svg PUBLIC "-//W3C//DTD SVG 1.1//EN" "http://www.w3.org/Graphics/SVG/1.1/DTD/svg11.dtd">
<svg xmlns="http://www.w3.org/2000/svg" version="1.1" width="83px" height="92px" style="shape-rendering:geometricPrecision; text-rendering:geometricPrecision; image-rendering:optimizeQuality; fill-rule:evenodd; clip-rule:evenodd" xmlns:xlink="http://www.w3.org/1999/xlink">
<g><path style="opacity:0.039" fill="#f3f3f3" d="M 61.5,3.5 C 66.7312,3.44435 71.7312,4.11101 76.5,5.5C 71.2688,5.55565 66.2688,4.88899 61.5,3.5 Z"/></g>
<g><path style="opacity:0.859" fill="#e2e1e1" d="M 60.5,3.5 C 48.4954,3.33346 36.4954,3.50013 24.5,4C 22.2922,4.19088 20.2922,4.69088 18.5,5.5C 14.8333,5.5 11.1667,5.5 7.5,5.5C 12.6022,4.08205 17.9355,3.24872 23.5,3C 36.0069,2.17347 48.3403,2.34014 60.5,3.5 Z"/></g>
<g><path style="opacity:0.004" fill="#fefffe" d="M -0.5,5.5 C 0.833333,6.16667 0.833333,6.16667 -0.5,5.5 Z"/></g>
<g><path style="opacity:1" fill="#b9bdc2" d="M 63.5,8.5 C 60.8333,8.5 58.1667,8.5 55.5,8.5C 54.5,8.5 53.5,8.5 52.5,8.5C 37.9818,7.27132 23.3152,7.43799 8.5,9C 7.94404,9.38258 7.61071,9.88258 7.5,10.5C 7.5,23.8333 7.5,37.1667 7.5,50.5C 6.77842,50.0825 6.27842,49.4158 6,48.5C 5.20264,35.1403 5.36931,21.807 6.5,8.5C 6.16667,7.83333 5.83333,7.16667 5.5,6.5C 5.98393,7.7808 5.31726,8.7808 3.5,9.5C 3.5,8.5 3.5,7.5 3.5,6.5C 4.56764,5.56552 5.90097,5.23219 7.5,5.5C 11.1667,5.5 14.8333,5.5 18.5,5.5C 19.0968,6.13863 19.9302,6.47196 21,6.5C 34.1501,5.61595 47.3168,4.94929 60.5,4.5C 60.5,5.5 60.5,6.5 60.5,7.5C 61.791,7.26269 62.791,7.59603 63.5,8.5 Z"/></g>
<g><path style="opacity:1" fill="#a3c3cf" d="M 52.5,8.5 C 39.953,8.0855 27.6196,8.75216 15.5,10.5C 13.5,10.5 11.5,10.5 9.5,10.5C 8.83333,10.5 8.16667,10.5 7.5,10.5C 7.61071,9.88258 7.94404,9.38258 8.5,9C 23.3152,7.43799 37.9818,7.27132 52.5,8.5 Z"/></g>
<g><path style="opacity:0.453" fill="#e8e7e9" d="M 76.5,5.5 C 77.5,5.5 78.5,5.5 79.5,5.5C 79.5702,19.4509 79.9036,33.2843 80.5,47C 79.8519,52.1 78.5186,56.9333 76.5,61.5C 78.0356,50.9174 78.7023,40.2507 78.5,29.5C 78.4681,21.2671 77.8014,13.2671 76.5,5.5 Z"/></g>
<g><path style="opacity:1" fill="#6bb6c5" d="M 52.5,8.5 C 53.5,8.5 54.5,8.5 55.5,8.5C 55.5,8.83333 55.5,9.16667 55.5,9.5C 42.1533,9.42003 28.8199,9.75337 15.5,10.5C 27.6196,8.75216 39.953,8.0855 52.5,8.5 Z"/></g>
<g><path style="opacity:1" fill="#28a0b1" d="M 55.5,9.5 C 60.9559,9.51822 66.2892,10.1849 71.5,11.5C 71.5,18.1667 71.5,24.8333 71.5,31.5C 70.415,25.5632 69.915,19.5632 70,13.5C 67.9592,12.5769 65.7925,12.2436 63.5,12.5C 55.4225,11.1785 47.2558,11.5118 39,13.5C 31.2648,11.8184 23.4315,11.1517 15.5,11.5C 14.1667,11.5 12.8333,11.5 11.5,11.5C 11.7148,13.1788 11.0481,14.1788 9.5,14.5C 9.5,13.1667 9.5,11.8333 9.5,10.5C 11.5,10.5 13.5,10.5 15.5,10.5C 28.8199,9.75337 42.1533,9.42003 55.5,9.5 Z"/></g>
<g><path style="opacity:1" fill="#03a3bc" d="M 15.5,11.5 C 23.4315,11.1517 31.2648,11.8184 39,13.5C 47.2558,11.5118 55.4225,11.1785 63.5,12.5C 64.9187,13.4511 66.5853,13.7845 68.5,13.5C 68.5,14.5 68.5,15.5 68.5,16.5C 65.1667,16.1667 61.8333,15.8333 58.5,15.5C 54.9827,15.2126 51.3161,15.2126 47.5,15.5C 47.5,17.5 47.5,19.5 47.5,21.5C 45.1732,21.6646 43.0065,22.3313 41,23.5C 40.0754,22.9535 39.2421,22.2868 38.5,21.5C 40.8607,20.1421 43.1941,18.6421 45.5,17C 42.5337,16.1048 39.8671,16.6048 37.5,18.5C 35.7454,14.9937 33.7454,14.9937 31.5,18.5C 29.712,18.7852 28.0453,18.4519 26.5,17.5C 25.91,16.2011 24.91,15.3678 23.5,15C 21.1667,14.6667 18.8333,14.3333 16.5,14C 15.7476,13.3292 15.4142,12.4959 15.5,11.5 Z"/></g>
<g><path style="opacity:1" fill="#0aa3b7" d="M 63.5,12.5 C 65.7925,12.2436 67.9592,12.5769 70,13.5C 69.915,19.5632 70.415,25.5632 71.5,31.5C 72.2832,41.1159 71.1165,50.4492 68,59.5C 66.6288,61.0414 65.1288,62.3747 63.5,63.5C 69.8989,54.2157 72.0655,43.8824 70,32.5C 69.6667,37.5 69.3333,42.5 69,47.5C 68.8306,41.1406 68.3306,34.8072 67.5,28.5C 65.8353,25.7161 64.1686,23.0494 62.5,20.5C 61.9653,18.5544 60.632,17.5544 58.5,17.5C 58.5,16.8333 58.5,16.1667 58.5,15.5C 61.8333,15.8333 65.1667,16.1667 68.5,16.5C 68.5,15.5 68.5,14.5 68.5,13.5C 66.5853,13.7845 64.9187,13.4511 63.5,12.5 Z"/></g>
<g><path style="opacity:1" fill="#bcbec1" d="M 60.5,3.5 C 60.8333,3.5 61.1667,3.5 61.5,3.5C 66.2688,4.88899 71.2688,5.55565 76.5,5.5C 77.8014,13.2671 78.4681,21.2671 78.5,29.5C 78.7023,40.2507 78.0356,50.9174 76.5,61.5C 74.7497,62.6594 73.7497,64.326 73.5,66.5C 73.5,67.1667 73.1667,67.5 72.5,67.5C 70.7041,68.7927 69.0375,70.2927 67.5,72C 66.2068,72.49 64.8734,72.6567 63.5,72.5C 63.5674,73.9587 63.2341,75.2921 62.5,76.5C 61.4863,77.6737 60.153,78.3404 58.5,78.5C 56.326,78.7497 54.6594,79.7497 53.5,81.5C 52.0697,82.5375 50.403,83.2041 48.5,83.5C 45.9716,84.0114 43.4716,84.6781 41,85.5C 38.7298,84.1401 36.2298,83.4734 33.5,83.5C 31.4177,80.2667 28.4177,78.4334 24.5,78C 25.056,77.6174 25.3893,77.1174 25.5,76.5C 27.1172,77.038 28.7839,77.3713 30.5,77.5C 33.9589,78.6463 37.4589,79.6463 41,80.5C 43.4839,80.5033 45.6505,79.8366 47.5,78.5C 56.2461,76.7944 62.9128,72.1278 67.5,64.5C 72.133,61.4927 74.133,57.1593 73.5,51.5C 74.223,38.9882 74.8897,26.3216 75.5,13.5C 75.38,10.9365 74.0467,9.43648 71.5,9C 68.854,8.50258 66.1873,8.33591 63.5,8.5C 62.791,7.59603 61.791,7.26269 60.5,7.5C 60.5,6.5 60.5,5.5 60.5,4.5C 47.3168,4.94929 34.1501,5.61595 21,6.5C 19.9302,6.47196 19.0968,6.13863 18.5,5.5C 20.2922,4.69088 22.2922,4.19088 24.5,4C 36.4954,3.50013 48.4954,3.33346 60.5,3.5 Z"/></g>
<g><path style="opacity:1" fill="#1ba3b9" d="M 58.5,15.5 C 58.5,16.1667 58.5,16.8333 58.5,17.5C 55.9528,18.9336 53.6195,20.6002 51.5,22.5C 47.5031,24.9968 43.1697,26.6634 38.5,27.5C 36.5,25.8333 34.5,24.1667 32.5,22.5C 31.7659,21.2921 31.4326,19.9587 31.5,18.5C 33.7454,14.9937 35.7454,14.9937 37.5,18.5C 39.8671,16.6048 42.5337,16.1048 45.5,17C 43.1941,18.6421 40.8607,20.1421 38.5,21.5C 39.2421,22.2868 40.0754,22.9535 41,23.5C 43.0065,22.3313 45.1732,21.6646 47.5,21.5C 47.5,19.5 47.5,17.5 47.5,15.5C 51.3161,15.2126 54.9827,15.2126 58.5,15.5 Z"/></g>
<g><path style="opacity:1" fill="#a7c0c9" d="M 55.5,9.5 C 55.5,9.16667 55.5,8.83333 55.5,8.5C 58.1667,8.5 60.8333,8.5 63.5,8.5C 66.1873,8.33591 68.854,8.50258 71.5,9C 74.0467,9.43648 75.38,10.9365 75.5,13.5C 74.8897,26.3216 74.223,38.9882 73.5,51.5C 73.8289,37.9895 73.4956,24.6562 72.5,11.5C 72.1667,11.5 71.8333,11.5 71.5,11.5C 66.2892,10.1849 60.9559,9.51822 55.5,9.5 Z"/></g>
<g><path style="opacity:1" fill="#8ec2cc" d="M 7.5,10.5 C 8.16667,10.5 8.83333,10.5 9.5,10.5C 9.5,11.8333 9.5,13.1667 9.5,14.5C 9.5,26.8333 9.5,39.1667 9.5,51.5C 9.50795,54.5448 9.84128,57.5448 10.5,60.5C 8.87001,57.4701 7.87001,54.1368 7.5,50.5C 7.5,37.1667 7.5,23.8333 7.5,10.5 Z"/></g>
<g><path style="opacity:1" fill="#1da4b9" d="M 15.5,11.5 C 15.4142,12.4959 15.7476,13.3292 16.5,14C 18.8333,14.3333 21.1667,14.6667 23.5,15C 24.91,15.3678 25.91,16.2011 26.5,17.5C 28.0453,18.4519 29.712,18.7852 31.5,18.5C 31.4326,19.9587 31.7659,21.2921 32.5,22.5C 29.2003,20.8921 25.8669,19.2255 22.5,17.5C 20.7869,17.8793 19.7869,18.8793 19.5,20.5C 20.2648,22.929 21.9315,24.2623 24.5,24.5C 24.4729,26.1993 23.8062,27.5326 22.5,28.5C 22.3335,37.8393 22.5002,47.1726 23,56.5C 23.8159,57.8228 24.9826,58.4894 26.5,58.5C 29.8333,60.8333 33.1667,63.1667 36.5,65.5C 35.8333,65.8333 35.1667,66.1667 34.5,66.5C 33.3281,65.2947 31.9948,65.2947 30.5,66.5C 29.8333,65.1667 29.1667,63.8333 28.5,62.5C 26.1463,61.9399 23.813,61.2733 21.5,60.5C 20.3601,58.5266 19.0267,56.6933 17.5,55C 18.8331,53.1598 18.6665,52.6598 17,53.5C 15.8261,51.3291 13.9928,50.3291 11.5,50.5C 11.767,52.9653 12.4336,55.2986 13.5,57.5C 12.8333,57.5 12.5,57.8333 12.5,58.5C 11.1314,56.3085 10.1314,53.9752 9.5,51.5C 9.5,39.1667 9.5,26.8333 9.5,14.5C 11.0481,14.1788 11.7148,13.1788 11.5,11.5C 12.8333,11.5 14.1667,11.5 15.5,11.5 Z M 25.5,21.5 C 23.9719,21.4827 23.4719,20.816 24,19.5C 24.7172,20.0442 25.2172,20.7109 25.5,21.5 Z"/></g>
<g><path style="opacity:0.018" fill="#e4f2f4" d="M 32.5,22.5 C 34.5,24.1667 36.5,25.8333 38.5,27.5C 37.5,27.5 36.5,27.5 35.5,27.5C 34.4863,26.3263 33.153,25.6596 31.5,25.5C 31.8333,26.1667 32.1667,26.8333 32.5,27.5C 28.0344,25.4335 23.701,23.1002 19.5,20.5C 19.7869,18.8793 20.7869,17.8793 22.5,17.5C 25.8669,19.2255 29.2003,20.8921 32.5,22.5 Z M 25.5,21.5 C 25.2172,20.7109 24.7172,20.0442 24,19.5C 23.4719,20.816 23.9719,21.4827 25.5,21.5 Z M 25.5,21.5 C 27.674,21.7497 29.3406,22.7497 30.5,24.5C 28.326,24.2503 26.6594,23.2503 25.5,21.5 Z M 31.5,25.5 C 33.153,25.6596 34.4863,26.3263 35.5,27.5C 34.5,27.5 33.5,27.5 32.5,27.5C 32.1667,26.8333 31.8333,26.1667 31.5,25.5 Z"/></g>
<g><path style="opacity:1" fill="#04a3bc" d="M 62.5,20.5 C 64.1686,23.0494 65.8353,25.7161 67.5,28.5C 68.3306,34.8072 68.8306,41.1406 69,47.5C 69.3333,42.5 69.6667,37.5 70,32.5C 72.0655,43.8824 69.8989,54.2157 63.5,63.5C 63.5,64.5 63.5,65.5 63.5,66.5C 61.8561,66.2865 60.3561,66.6198 59,67.5C 58.342,65.892 58.842,64.7253 60.5,64C 59.9781,63.4387 59.6448,62.772 59.5,62C 61.1874,58.7428 63.0207,55.5762 65,52.5C 65.49,51.2068 65.6567,49.8734 65.5,48.5C 63.7839,48.6287 62.1172,48.962 60.5,49.5C 60.5,42.5 60.5,35.5 60.5,28.5C 61.5,28.5 62.5,28.5 63.5,28.5C 63.756,26.0876 62.756,24.4209 60.5,23.5C 60.8627,22.8165 61.1961,22.1499 61.5,21.5C 61.5,20.8333 61.8333,20.5 62.5,20.5 Z"/></g>
<g><path style="opacity:0.027" fill="#e5f2f5" d="M 58.5,17.5 C 60.632,17.5544 61.9653,18.5544 62.5,20.5C 61.8333,20.5 61.5,20.8333 61.5,21.5C 54.4346,24.782 47.6012,28.4487 41,32.5C 39.0188,32.1015 37.5188,31.1015 36.5,29.5C 37.5,29.1667 38.1667,28.5 38.5,27.5C 43.1697,26.6634 47.5031,24.9968 51.5,22.5C 53.6195,20.6002 55.9528,18.9336 58.5,17.5 Z M 50.5,24.5 C 50.8333,23.8333 51.1667,23.1667 51.5,22.5C 52.8474,21.9717 54.1807,21.805 55.5,22C 54.0899,23.3717 52.4233,24.205 50.5,24.5 Z M 43.5,27.5 C 45.3786,27.3932 45.7119,27.8932 44.5,29C 42.4708,29.6811 40.4708,30.0144 38.5,30C 40.1749,29.0147 41.8415,28.1814 43.5,27.5 Z"/></g>
<g><path style="opacity:0.094" fill="#e0eff1" d="M 32.5,27.5 C 33.5,27.5 34.5,27.5 35.5,27.5C 35.8333,28.1667 36.1667,28.8333 36.5,29.5C 35.391,29.4431 34.391,29.1098 33.5,28.5C 32.8333,28.5 32.5,28.1667 32.5,27.5 Z"/></g>
<g><path style="opacity:1" fill="#37aabc" d="M 61.5,21.5 C 61.1961,22.1499 60.8627,22.8165 60.5,23.5C 62.756,24.4209 63.756,26.0876 63.5,28.5C 62.5,28.5 61.5,28.5 60.5,28.5C 60.5,35.5 60.5,42.5 60.5,49.5C 60.8016,52.0593 60.4682,54.3926 59.5,56.5C 59.5,47.1667 59.5,37.8333 59.5,28.5C 58.209,28.2627 57.209,28.596 56.5,29.5C 55.8071,38.0676 55.1404,46.7342 54.5,55.5C 54.5,55.8333 54.5,56.1667 54.5,56.5C 53.8333,56.5 53.1667,56.5 52.5,56.5C 52.1667,56.5 51.8333,56.5 51.5,56.5C 52.3543,54.965 52.3543,53.6316 51.5,52.5C 51.83,45.8002 51.4967,39.1335 50.5,32.5C 49.8933,32.6236 49.56,32.9569 49.5,33.5C 46.6649,35.0817 43.6649,36.415 40.5,37.5C 37.5943,36.5819 34.9276,35.2485 32.5,33.5C 32.5,32.8333 32.1667,32.5 31.5,32.5C 32.6005,31.3951 33.2671,30.0618 33.5,28.5C 34.391,29.1098 35.391,29.4431 36.5,29.5C 37.5188,31.1015 39.0188,32.1015 41,32.5C 47.6012,28.4487 54.4346,24.782 61.5,21.5 Z"/></g>
<g><path style="opacity:0.158" fill="#f3f3f3" d="M 3.5,6.5 C 3.5,7.5 3.5,8.5 3.5,9.5C 3.33342,23.8372 3.50009,38.1705 4,52.5C 4.86222,56.6204 6.02888,60.6204 7.5,64.5C 4.75854,61.466 3.25854,57.7993 3,53.5C 2.17202,37.6612 2.33868,21.9946 3.5,6.5 Z"/></g>
<g><path style="opacity:1" fill="#bdc0c3" d="M 7.5,50.5 C 7.87001,54.1368 8.87001,57.4701 10.5,60.5C 11.593,62.3492 12.9263,64.0158 14.5,65.5C 14.3371,68.9397 16.0038,70.9397 19.5,71.5C 20.562,73.0217 21.2287,74.6883 21.5,76.5C 19.4832,75.4706 17.4832,74.4706 15.5,73.5C 14.1667,71.5 12.5,69.8333 10.5,68.5C 8.73758,67.7377 7.73758,66.4044 7.5,64.5C 6.02888,60.6204 4.86222,56.6204 4,52.5C 3.50009,38.1705 3.33342,23.8372 3.5,9.5C 5.31726,8.7808 5.98393,7.7808 5.5,6.5C 5.83333,7.16667 6.16667,7.83333 6.5,8.5C 5.36931,21.807 5.20264,35.1403 6,48.5C 6.27842,49.4158 6.77842,50.0825 7.5,50.5 Z"/></g>
<g><path style="opacity:1" fill="#23a5b7" d="M 19.5,20.5 C 23.701,23.1002 28.0344,25.4335 32.5,27.5C 32.5,28.1667 32.8333,28.5 33.5,28.5C 33.2671,30.0618 32.6005,31.3951 31.5,32.5C 30.1667,38.8333 30.1667,45.1667 31.5,51.5C 32.221,53.3818 33.221,53.7152 34.5,52.5C 35.1667,48.5 35.8333,44.5 36.5,40.5C 37.7095,40.9321 38.7095,41.5987 39.5,42.5C 35.8867,46.0675 36.5534,49.0675 41.5,51.5C 42.3857,50.675 42.719,49.675 42.5,48.5C 41.325,48.719 40.325,48.3857 39.5,47.5C 42.1767,46.3295 44.1767,47.1628 45.5,50C 44.5389,54.0097 42.2056,55.5097 38.5,54.5C 37.7255,56.3964 36.7255,58.063 35.5,59.5C 32.4475,58.2231 29.6141,56.5564 27,54.5C 26.6667,46.1667 26.3333,37.8333 26,29.5C 24.9887,28.6634 23.8221,28.33 22.5,28.5C 23.8062,27.5326 24.4729,26.1993 24.5,24.5C 21.9315,24.2623 20.2648,22.929 19.5,20.5 Z M 31.5,41.5 C 32.1667,42.1667 32.8333,42.8333 33.5,43.5C 33.5,43.8333 33.5,44.1667 33.5,44.5C 32.8333,45.1667 32.1667,45.8333 31.5,46.5C 31.5,44.8333 31.5,43.1667 31.5,41.5 Z"/></g>
<g><path style="opacity:1" fill="#04a2bd" d="M 34.5,66.5 C 34.9443,68.1132 35.9443,69.2798 37.5,70C 36.2161,70.6838 35.0495,70.5171 34,69.5C 33.0053,70.0659 32.172,70.7326 31.5,71.5C 31.44,72.0431 31.1067,72.3764 30.5,72.5C 27.6386,68.9026 23.9719,66.5692 19.5,65.5C 17.9137,63.8273 17.2471,61.8273 17.5,59.5C 15.5168,59.8432 14.1834,59.1765 13.5,57.5C 12.4336,55.2986 11.767,52.9653 11.5,50.5C 13.9928,50.3291 15.8261,51.3291 17,53.5C 18.6665,52.6598 18.8331,53.1598 17.5,55C 19.0267,56.6933 20.3601,58.5266 21.5,60.5C 23.813,61.2733 26.1463,61.9399 28.5,62.5C 29.1667,63.8333 29.8333,65.1667 30.5,66.5C 31.9948,65.2947 33.3281,65.2947 34.5,66.5 Z"/></g>
<g><path style="opacity:1" fill="#7ac1ca" d="M 9.5,51.5 C 10.1314,53.9752 11.1314,56.3085 12.5,58.5C 13.242,60.9798 14.242,63.3131 15.5,65.5C 15.1667,65.5 14.8333,65.5 14.5,65.5C 12.9263,64.0158 11.593,62.3492 10.5,60.5C 9.84128,57.5448 9.50795,54.5448 9.5,51.5 Z"/></g>
<g><path style="opacity:1" fill="#359aab" d="M 71.5,11.5 C 71.8333,11.5 72.1667,11.5 72.5,11.5C 72.6666,25.1707 72.4999,38.8374 72,52.5C 70.7708,56.6209 69.2708,60.6209 67.5,64.5C 66.1667,65.5 64.8333,66.5 63.5,67.5C 63.5,67.1667 63.5,66.8333 63.5,66.5C 63.5,65.5 63.5,64.5 63.5,63.5C 65.1288,62.3747 66.6288,61.0414 68,59.5C 71.1165,50.4492 72.2832,41.1159 71.5,31.5C 71.5,24.8333 71.5,18.1667 71.5,11.5 Z"/></g>
<g><path style="opacity:0.012" fill="#e7f4f6" d="M 22.5,28.5 C 23.8221,28.33 24.9887,28.6634 26,29.5C 26.3333,37.8333 26.6667,46.1667 27,54.5C 29.6141,56.5564 32.4475,58.2231 35.5,59.5C 37.4605,61.3122 39.7939,62.3122 42.5,62.5C 41.0813,63.4511 39.4147,63.7845 37.5,63.5C 39.6282,64.6291 41.9615,64.7958 44.5,64C 45.7736,63.0228 45.7736,62.1894 44.5,61.5C 45.6594,59.7497 47.326,58.7497 49.5,58.5C 50.1667,59.8333 50.8333,59.8333 51.5,58.5C 52.1667,58.5 52.5,58.1667 52.5,57.5C 53.4916,57.6716 54.1583,57.3382 54.5,56.5C 55.4916,56.6716 56.1583,56.3382 56.5,55.5C 56.8333,55.5 57.1667,55.5 57.5,55.5C 58.1657,51.3467 58.4991,47.0134 58.5,42.5C 58.4921,37.7784 57.8255,33.4451 56.5,29.5C 57.209,28.596 58.209,28.2627 59.5,28.5C 59.5,37.8333 59.5,47.1667 59.5,56.5C 54.457,59.015 49.7904,62.015 45.5,65.5C 42.5,66.8333 39.5,66.8333 36.5,65.5C 33.1667,63.1667 29.8333,60.8333 26.5,58.5C 24.9826,58.4894 23.8159,57.8228 23,56.5C 22.5002,47.1726 22.3335,37.8393 22.5,28.5 Z M 29.5,58.5 C 28.5,58.5 27.5,58.5 26.5,58.5C 25.1498,57.3501 25.3164,56.6834 27,56.5C 28.301,56.6387 29.1344,57.3054 29.5,58.5 Z M 31.5,41.5 C 32.1667,42.1667 32.8333,42.8333 33.5,43.5C 33.5,43.8333 33.5,44.1667 33.5,44.5C 32.8333,45.1667 32.1667,45.8333 31.5,46.5C 31.5,44.8333 31.5,43.1667 31.5,41.5 Z M 43.5,38.5 C 42.1052,40.3003 40.4385,40.6336 38.5,39.5C 40.0453,38.5481 41.712,38.2148 43.5,38.5 Z M 47.5,36.5 C 48.8048,38.3972 49.4714,40.7305 49.5,43.5C 49.3333,45.8333 49.1667,48.1667 49,50.5C 49.0631,46.0182 48.2297,41.8515 46.5,38C 47.056,37.6174 47.3893,37.1174 47.5,36.5 Z M 36.5,38.5 C 35.0222,38.762 33.6888,38.4287 32.5,37.5C 34.2395,36.1908 35.5729,36.5241 36.5,38.5 Z M 35.5,62.5 C 34.2438,62.5386 33.2438,62.0386 32.5,61C 33.9976,60.4153 34.9976,60.9153 35.5,62.5 Z M 44.5,61.5 C 45.7736,62.1894 45.7736,63.0228 44.5,64C 41.9615,64.7958 39.6282,64.6291 37.5,63.5C 39.4147,63.7845 41.0813,63.4511 42.5,62.5C 43.4916,62.6716 44.1583,62.3382 44.5,61.5 Z"/></g>
<g><path style="opacity:0.027" fill="#e3f1f4" d="M 51.5,56.5 C 51.8333,56.5 52.1667,56.5 52.5,56.5C 52.5,56.8333 52.5,57.1667 52.5,57.5C 51.8333,57.5 51.5,57.8333 51.5,58.5C 50.8333,58.5 50.1667,58.5 49.5,58.5C 49.8333,57.5 50.5,56.8333 51.5,56.5 Z"/></g>
<g><path style="opacity:1" fill="#24a5bc" d="M 45.5,40.5 C 46.1667,44.5 46.8333,48.5 47.5,52.5C 48.5,52.5 49.5,52.5 50.5,52.5C 50.8333,52.5 51.1667,52.5 51.5,52.5C 52.3543,53.6316 52.3543,54.965 51.5,56.5C 50.5,56.8333 49.8333,57.5 49.5,58.5C 47.326,58.7497 45.6594,59.7497 44.5,61.5C 44.1583,62.3382 43.4916,62.6716 42.5,62.5C 39.7939,62.3122 37.4605,61.3122 35.5,59.5C 36.7255,58.063 37.7255,56.3964 38.5,54.5C 42.2056,55.5097 44.5389,54.0097 45.5,50C 44.1767,47.1628 42.1767,46.3295 39.5,47.5C 40.325,48.3857 41.325,48.719 42.5,48.5C 42.719,49.675 42.3857,50.675 41.5,51.5C 36.5534,49.0675 35.8867,46.0675 39.5,42.5C 41.6854,42.2964 43.6854,41.6298 45.5,40.5 Z"/></g>
<g><path style="opacity:0.188" fill="#d4edf1" d="M 34.5,39.5 C 34.5,43.8333 34.5,48.1667 34.5,52.5C 33.221,53.7152 32.221,53.3818 31.5,51.5C 33.3435,49.7211 34.0102,47.3878 33.5,44.5C 33.5,44.1667 33.5,43.8333 33.5,43.5C 33.2322,41.901 33.5655,40.5676 34.5,39.5 Z"/></g>
<g><path style="opacity:0.224" fill="#cde6ec" d="M 31.5,32.5 C 32.1667,32.5 32.5,32.8333 32.5,33.5C 31.5269,35.9479 31.1936,38.6146 31.5,41.5C 31.5,43.1667 31.5,44.8333 31.5,46.5C 31.5,48.1667 31.5,49.8333 31.5,51.5C 30.1667,45.1667 30.1667,38.8333 31.5,32.5 Z"/></g>
<g><path style="opacity:0.749" fill="#69c8d4" d="M 34.5,39.5 C 35.1667,39.5 35.8333,39.5 36.5,39.5C 36.5,39.8333 36.5,40.1667 36.5,40.5C 35.8333,44.5 35.1667,48.5 34.5,52.5C 34.5,48.1667 34.5,43.8333 34.5,39.5 Z"/></g>
<g><path style="opacity:0.686" fill="#67b4c3" d="M 45.5,40.5 C 45.56,39.9569 45.8933,39.6236 46.5,39.5C 47.4922,43.7828 47.8256,48.1161 47.5,52.5C 46.8333,48.5 46.1667,44.5 45.5,40.5 Z"/></g>
<g><path style="opacity:0.013" fill="#fbfdfd" d="M 33.5,44.5 C 34.0102,47.3878 33.3435,49.7211 31.5,51.5C 31.5,49.8333 31.5,48.1667 31.5,46.5C 32.1667,45.8333 32.8333,45.1667 33.5,44.5 Z"/></g>
<g><path style="opacity:0.266" fill="#c2e8ec" d="M 49.5,33.5 C 49.56,32.9569 49.8933,32.6236 50.5,32.5C 51.4967,39.1335 51.83,45.8002 51.5,52.5C 51.1667,52.5 50.8333,52.5 50.5,52.5C 50.8235,45.9779 50.4902,39.6446 49.5,33.5 Z"/></g>
<g><path style="opacity:0.043" fill="#ecf6f7" d="M 32.5,33.5 C 34.9276,35.2485 37.5943,36.5819 40.5,37.5C 43.6649,36.415 46.6649,35.0817 49.5,33.5C 50.4902,39.6446 50.8235,45.9779 50.5,52.5C 49.5,52.5 48.5,52.5 47.5,52.5C 47.8256,48.1161 47.4922,43.7828 46.5,39.5C 45.8933,39.6236 45.56,39.9569 45.5,40.5C 43.6854,41.6298 41.6854,42.2964 39.5,42.5C 38.7095,41.5987 37.7095,40.9321 36.5,40.5C 36.5,40.1667 36.5,39.8333 36.5,39.5C 35.8333,39.5 35.1667,39.5 34.5,39.5C 33.5655,40.5676 33.2322,41.901 33.5,43.5C 32.8333,42.8333 32.1667,42.1667 31.5,41.5C 31.1936,38.6146 31.5269,35.9479 32.5,33.5 Z M 43.5,38.5 C 41.712,38.2148 40.0453,38.5481 38.5,39.5C 40.4385,40.6336 42.1052,40.3003 43.5,38.5 Z M 47.5,36.5 C 47.3893,37.1174 47.056,37.6174 46.5,38C 48.2297,41.8515 49.0631,46.0182 49,50.5C 49.1667,48.1667 49.3333,45.8333 49.5,43.5C 49.4714,40.7305 48.8048,38.3972 47.5,36.5 Z M 36.5,38.5 C 35.5729,36.5241 34.2395,36.1908 32.5,37.5C 33.6888,38.4287 35.0222,38.762 36.5,38.5 Z"/></g>
<g><path style="opacity:0.015" fill="#fbfdfd" d="M 56.5,29.5 C 57.8255,33.4451 58.4921,37.7784 58.5,42.5C 58.4991,47.0134 58.1657,51.3467 57.5,55.5C 57.5,54.8333 57.1667,54.5 56.5,54.5C 56.5,46.1667 56.5,37.8333 56.5,29.5 Z"/></g>
<g><path style="opacity:0.303" fill="#b8dde3" d="M 56.5,29.5 C 56.5,37.8333 56.5,46.1667 56.5,54.5C 56.5,54.8333 56.5,55.1667 56.5,55.5C 55.8333,55.5 55.1667,55.5 54.5,55.5C 55.1404,46.7342 55.8071,38.0676 56.5,29.5 Z"/></g>
<g><path style="opacity:1" fill="#22a2b5" d="M 63.5,66.5 C 63.5,66.8333 63.5,67.1667 63.5,67.5C 60.1667,69.8333 56.8333,72.1667 53.5,74.5C 49.2834,75.6071 45.2834,77.2738 41.5,79.5C 39.0128,79.2413 37.0128,78.2413 35.5,76.5C 38.5184,76.6646 41.5184,76.498 44.5,76C 47.618,74.107 50.9513,72.7736 54.5,72C 56.915,70.5347 57.915,68.368 57.5,65.5C 53.5,65.5 49.5,65.5 45.5,65.5C 49.7904,62.015 54.457,59.015 59.5,56.5C 60.4682,54.3926 60.8016,52.0593 60.5,49.5C 62.1172,48.962 63.7839,48.6287 65.5,48.5C 65.6567,49.8734 65.49,51.2068 65,52.5C 63.0207,55.5762 61.1874,58.7428 59.5,62C 59.6448,62.772 59.9781,63.4387 60.5,64C 58.842,64.7253 58.342,65.892 59,67.5C 60.3561,66.6198 61.8561,66.2865 63.5,66.5 Z"/></g>
<g><path style="opacity:1" fill="#8ab7c6" d="M 72.5,11.5 C 73.4956,24.6562 73.8289,37.9895 73.5,51.5C 74.133,57.1593 72.133,61.4927 67.5,64.5C 69.2708,60.6209 70.7708,56.6209 72,52.5C 72.4999,38.8374 72.6666,25.1707 72.5,11.5 Z"/></g>
<g><path style="opacity:0.153" fill="#f2f2f1" d="M 76.5,61.5 C 76.2503,63.674 75.2503,65.3406 73.5,66.5C 73.7497,64.326 74.7497,62.6594 76.5,61.5 Z"/></g>
<g><path style="opacity:1" fill="#26a3b2" d="M 13.5,57.5 C 14.1834,59.1765 15.5168,59.8432 17.5,59.5C 17.2471,61.8273 17.9137,63.8273 19.5,65.5C 23.9719,66.5692 27.6386,68.9026 30.5,72.5C 31.1067,72.3764 31.44,72.0431 31.5,71.5C 32.9778,71.238 34.3112,71.5713 35.5,72.5C 34.3757,73.8592 33.0423,74.8592 31.5,75.5C 28.1615,73.8324 24.8282,72.1657 21.5,70.5C 19.5,68.8333 17.5,67.1667 15.5,65.5C 14.242,63.3131 13.242,60.9798 12.5,58.5C 12.5,57.8333 12.8333,57.5 13.5,57.5 Z"/></g>
<g><path style="opacity:0.004" fill="#f5f5f6" d="M 10.5,68.5 C 12.5,69.8333 14.1667,71.5 15.5,73.5C 12.8333,72.8333 11.1667,71.1667 10.5,68.5 Z"/></g>
<g><path style="opacity:1" fill="#12a3bb" d="M 36.5,65.5 C 39.5,66.8333 42.5,66.8333 45.5,65.5C 49.5,65.5 53.5,65.5 57.5,65.5C 57.915,68.368 56.915,70.5347 54.5,72C 50.9513,72.7736 47.618,74.107 44.5,76C 41.5184,76.498 38.5184,76.6646 35.5,76.5C 33.901,76.7678 32.5676,76.4345 31.5,75.5C 33.0423,74.8592 34.3757,73.8592 35.5,72.5C 34.3112,71.5713 32.9778,71.238 31.5,71.5C 32.172,70.7326 33.0053,70.0659 34,69.5C 35.0495,70.5171 36.2161,70.6838 37.5,70C 35.9443,69.2798 34.9443,68.1132 34.5,66.5C 35.1667,66.1667 35.8333,65.8333 36.5,65.5 Z"/></g>
<g><path style="opacity:1" fill="#a3c0cb" d="M 67.5,64.5 C 62.9128,72.1278 56.2461,76.7944 47.5,78.5C 49.8102,77.675 51.8102,76.3417 53.5,74.5C 56.8333,72.1667 60.1667,69.8333 63.5,67.5C 64.8333,66.5 66.1667,65.5 67.5,64.5 Z"/></g>
<g><path style="opacity:0.961" fill="#e2e2e1" d="M 72.5,67.5 C 70.4225,71.8757 67.0892,74.8757 62.5,76.5C 63.2341,75.2921 63.5674,73.9587 63.5,72.5C 64.8734,72.6567 66.2068,72.49 67.5,72C 69.0375,70.2927 70.7041,68.7927 72.5,67.5 Z"/></g>
<g><path style="opacity:1" fill="#92c1ce" d="M 21.5,70.5 C 24.8282,72.1657 28.1615,73.8324 31.5,75.5C 32.5676,76.4345 33.901,76.7678 35.5,76.5C 37.0128,78.2413 39.0128,79.2413 41.5,79.5C 45.2834,77.2738 49.2834,75.6071 53.5,74.5C 51.8102,76.3417 49.8102,77.675 47.5,78.5C 45.6505,79.8366 43.4839,80.5033 41,80.5C 37.4589,79.6463 33.9589,78.6463 30.5,77.5C 28.0578,75.7742 25.3911,74.2742 22.5,73C 21.7476,72.3292 21.4142,71.4959 21.5,70.5 Z"/></g>
<g><path style="opacity:1" fill="#acbec7" d="M 14.5,65.5 C 14.8333,65.5 15.1667,65.5 15.5,65.5C 17.5,67.1667 19.5,68.8333 21.5,70.5C 21.4142,71.4959 21.7476,72.3292 22.5,73C 25.3911,74.2742 28.0578,75.7742 30.5,77.5C 28.7839,77.3713 27.1172,77.038 25.5,76.5C 24.0357,75.5946 22.7024,75.5946 21.5,76.5C 21.2287,74.6883 20.562,73.0217 19.5,71.5C 16.0038,70.9397 14.3371,68.9397 14.5,65.5 Z"/></g>
<g><path style="opacity:1" fill="#d5d4d5" d="M 15.5,73.5 C 17.4832,74.4706 19.4832,75.4706 21.5,76.5C 22.7024,75.5946 24.0357,75.5946 25.5,76.5C 25.3893,77.1174 25.056,77.6174 24.5,78C 28.4177,78.4334 31.4177,80.2667 33.5,83.5C 26.7501,81.3943 20.7501,78.0609 15.5,73.5 Z"/></g>
<g><path style="opacity:0.141" fill="#f1f0f1" d="M 58.5,78.5 C 57.3406,80.2503 55.674,81.2503 53.5,81.5C 54.6594,79.7497 56.326,78.7497 58.5,78.5 Z"/></g>
<g><path style="opacity:0.122" fill="#ececec" d="M 33.5,83.5 C 36.2298,83.4734 38.7298,84.1401 41,85.5C 43.4716,84.6781 45.9716,84.0114 48.5,83.5C 46.2685,85.201 43.7685,86.5343 41,87.5C 38.2315,86.5343 35.7315,85.201 33.5,83.5 Z"/></g>
</svg>
